<?xml version="1.0" encoding="utf-8"?>
<!-- Generator: Adobe Illustrator 16.0.0, SVG Export Plug-In . SVG Version: 6.00 Build 0)  -->
<!DOCTYPE svg PUBLIC "-//W3C//DTD SVG 1.1//EN" "http://www.w3.org/Graphics/SVG/1.1/DTD/svg11.dtd">
<svg version="1.1" id="Layer_1" xmlns="http://www.w3.org/2000/svg" xmlns:xlink="http://www.w3.org/1999/xlink" x="0px" y="0px"
	 width="612px" height="792px" viewBox="0 0 612 792" enable-background="new 0 0 612 792" xml:space="preserve">
<g>
	<path d="M543.279,326.705c-2.933-33.875-3.671-67.973-9.179-101.648c-1.99-12.164-0.137-25.146-3.282-36.883
		c-5.86-21.899-19.035-40.63-33.929-57.122c-37.129-41.117-83.949-69.625-131.536-96.837c-21.438,0-42.879,0-64.316,0
		c-10.934,17.603-31.11,19.591-47.606,23.216c-33.921,7.455-62.817,20.847-82.48,49.755c-15.969,23.481-27.048,48.923-33.623,77.341
		c-7.278,31.473-20.81,61.506-31.727,92.128c-1.103,3.091-3.49,5.712-3.583,9.211c-0.471,17.614-0.97,35.229-1.347,52.846
		c-0.047,2.258,0.204,4.702,3.196,6.289c3.639-2.766,5.696-6.952,8.157-10.795c1.547-2.412,3.415-4.699,6.442-2.889
		c3.293,1.971,5.295,5.286,5.119,9.198c-0.145,3.125,0.502,7.631-4.023,8.032c-5.332,0.467-6.297,5.431-6.253,7.787
		c0.208,11.329-0.491,23.417,3.313,33.689c2.818,7.607,2.167,12.832,0.027,19.683c-2.006,6.426-13.952,9.893-6.163,19.655
		c0.463,0.581-1.401,6.795-5.167,7.542c-3.651,0.726-5.271-3.01-6.387-5.438c-5.414-11.77-7.463-24.479-5.668-37.113
		c1.876-13.213,1.064-26.162,0.031-39.279c-2.371,7.296-4.746,14.561-6.049,22.011c-4.424,25.348-2.064,50.886,9.213,73.337
		c13.889,27.653,24.928,55.814,33.086,85.592c6.343,23.148,9.087,47.145,22.689,68.808c7.098,11.301,10.312,27.011,14.419,41.028
		c3.875,13.224,10.745,24.965,19.785,35.654c16.339,19.311,39.067,30.286,58.728,45.088c17.308,13.034,38.439,20.993,57.883,31.193
		c28.14,0,56.277,0,84.416,0c1.857-1.856,3.675-3.753,5.574-5.564c16.853-16.098,36.948-28.182,52.23-46.53
		c29.45-35.368,42.985-75.273,40.921-120.859c-0.263-5.812,0.456-11.516,2.708-16.702c15.279-35.111,21.489-72.938,33.129-109.101
		c4.346-13.504,3.278-27.938,8.82-40.727c4.225-9.751,3.345-19.135,2.14-29.008c-3.583,6.768-5.967,13.79-7.302,21.327
		c-1.734,9.818-0.631,21.435-6.932,28.838c-7.832,9.198-13.277,19.035-16.865,30.078c-4.95,15.239-18.576,24.91-24.232,39.922
		c-3.6,9.548-15.02,12.241-24.99,10.493c-6.258-1.098-14.922-2.515-18.961,0.685c-8.919,7.062-8.377-0.428-10.14-4.738
		c-1.131-2.763,0.816-6.199-3.848-8.122c-12.938-5.342-12.467-5.574-8.005-19.544c1.817-5.689,3.773-12.207,1.147-17.926
		c-1.657-3.611-20.547-5.088-24.257-2.896c-13.006,7.687-26.247,8.172-36.724-1.893c-8.024-7.706-15.656-5.048-23.82-3.653
		c-4.213,0.721-8.161,2.923-12.26,4.376c-4.149,1.472-8.66,2.646-8.492,8.339c0.165,5.628,1.677,11.062,7.439,13.12
		c6.085,2.176,8.771,4.705,4.078,10.629c-1.345,1.704-0.917,3.677-0.784,5.731c0.687,10.508-7.615,18.939-17.681,16.99
		c-4.487-0.872-6.167,0.011-7.416,3.8c-2.591,7.868-6.881,5.386-9.724,0.782c-2.873-4.649-5.405-5.633-9.378-2.027
		c-4.46,4.052-8.495,1.074-9.818-2.25c-3.045-7.646-4.734-5.979-8.95-0.741c-5.032,6.247-13.272,4.499-20.268,5.683
		c-0.381-7.1-8.641-10.268-8.821-17.319c-0.149-5.772-2.827-10.053-6.387-14.265c-13.728-16.24-22.451-35.558-27.864-55.504
		c-2.929-10.785-7.443-17.803-15.86-23.688c-2.976-2.08-6.556-4.235-6.854-8.267c-1.197-16.319-15.542-27.208-17.599-43.135
		c-0.121-0.923-0.695-2.112-1.433-2.583c-11.561-7.357-9.681-17.679-6.669-28.495c1.793-6.44,2.673-13.129,4.405-19.586
		c6.818-25.422,12.817-51.152,29.006-72.908c6.277-8.428,9.818-17.495,8.055-28.822c-1.154-7.408-0.632-14.952,2.069-23.165
		c12.013-36.524,36.504-58.821,72.617-69.322c7.89-2.293,16.205-4.285,24.326-4.297c9.25-0.013,17.94-4.473,27.307-2.51
		c1.872,0.393,4.04-0.816,5.06-2.725c3.098-5.774,8.126-4.751,13.175-4.025c3.627,0.52,7.317,0.646,10.905,1.338
		c4.538,0.877,7.172-2.302,6.885-5.299c-0.601-6.248,2.839-9.585,6.372-13.592c1.586-1.798,1.295-5.677,5.032-4.727
		c3.274,0.832,5.496,4.381,4.75,6.897c-2.937,9.865,4.95,13.905,10.278,18.011c3.838,2.959,4.611,9.296,10.731,9.496
		c10.795,0.354,21.277,0.885,30.268,8.77c4.294,3.769,10.979,7.505,16.09,6.925c5.505-0.628,8.252,2.312,12.252,3.284
		c14.635,3.557,26.043,11.143,37.828,20.407c17.52,13.779,26.721,31.04,31.409,51.863c3.406,15.147,2.967,30.445,2.261,45.769
		c-0.139,3.06,2.448,7.119-2.089,8.783c-4.071,1.49-5.712-2.198-7.875-4.717c-3.635-4.234-6.768-11.189-12.746-10.232
		c-27.036,4.322-56.317,3.513-73.864,31.224c-5.084,8.03-13.029,14.217-15.078,24.211c-0.641,3.115,0.109,6.208-2.388,9.341
		c-10.764,13.512-9.292,22.694,4.378,31.958c13.029,8.831,15.65,8.446,23.954-4.899c-2.172,14.445,8.298,15.124,16.515,17.956
		c5.158,1.778,10.336,2.86,14.638-2.357c7.329-8.882-0.478-15.225-4.572-22.998c9.483-0.396,17.52,3.678,16.519,11.137
		c-1.032,7.708,3.793,13.408,2.764,20.659c-0.741,5.225,4.283,7.443,9.292,8.645c6.147,1.48,3.945-3.818,5.445-6.065
		c2.394-3.588,3.858-8.526,7.16-10.613c5.256-3.321,7.168-8.432,9.696-13.168c4.769-8.94,2.171-16.167-5.48-23.02
		c-8.044-7.199-18.438-10.522-26.513-17.518c-3.663-3.172-7.303-6.587-6.875-11.585c0.416-4.887,5.61-3.663,8.79-4.999
		c1.531-0.642,2.917-1.635,4.439-2.302c12.813-5.638,24.579,0.62,29.54,13.876c2.43,6.49-0.263,14.034,5.312,20.849
		c4.365-10.218,0.812-21.115,6.969-30.025c2.63,30.763,15.611,59.964,12.22,91.533c1.83-3.664,1.56-7.696,2.372-11.46
		C539.922,355.058,544.48,340.558,543.279,326.705z M270.156,589.979h12.927l18.803-16.147h18.439h20.347l14.101,8.075l10.575-8.075
		v-11.744l4.704,13.946h16.452h10.575h16.456h11.749l10.579,6.604l15.279,7.341l-18.804,19.087l-8.229,23.488l-14.101,22.019
		l-12.931,24.955l-15.274,20.556h-21.156h-27.031h-8.225l-12.926-19.087l-14.105-26.424l-10.575-14.681l-9.401-22.019l-8.229-16.148
		V589.979z M472.956,315.49c3.587,1.028,6.846,2.763,9.424,5.437c3.039,3.148,6.683,8.115,5.006,11.141
		c-2.622,4.73-6.873-0.512-10.305-1.571c-12.52-3.86-25.242-5.295-40.155-3.933C448.153,315.36,459.471,311.619,472.956,315.49z"/>
</g>
<path fill-rule="evenodd" clip-rule="evenodd" d="M258.994,316.102c-12.554,2.179-20.123,5.857-23.35,15.82
	c-1.465,4.515-5.429,6.183-9.708,4.818c-4.279-1.359-9.371-2.31-10.497-8.081c-0.679-3.47,0.534-5.26,3.895-6.924
	c21.446-10.604,43.35-15.149,66.641-6.521c0.797,0.295,1.896-0.231,5.307-0.742c-9.099-8.671-17.32-14.56-28.401-17.417
	c-11.003-2.836-20.821-1.696-31.515,5.861c4.307-10.227,14.015-16.091,21.044-13.388c8.118,3.123,17.257,1.693,24.995,6.42
	c2.372,1.449,6.195,2.108,8.453-0.561c2.54-3.003-2.214-4.181-2.497-6.749c-0.283-2.565-1.115-5.069-2.081-9.209
	c14.089,4.308,25.272,11.496,32.869,22.152c4.53,6.355,13.603,11.078,10.839,22.097c-2.392,9.528-16.599,19.408-25.937,16.433
	c-3.078-0.979-3.851-3.003-4.562-5.816c-2.869-11.359-15.356-19.606-26.447-17.601c-1.083,0.197-2.76,1.38-2.81,2.194
	c-0.137,2.062,1.7,2.815,3.45,2.517c10.862-1.864,10.878,7.011,11.648,13.113c0.95,7.527-5.005,10.229-11.698,10.629
	c-3.654,0.218-7.467,0.543-10.985-0.206c-9.099-1.935-12.452-11.037-7.065-18.543C252.654,323.505,255.075,320.866,258.994,316.102z
	"/>
<path fill-rule="evenodd" clip-rule="evenodd" d="M311.472,278.096c3.411-12.348-4.001-18.747-5.668-26.696
	c10.606,2.287,16.306,10.458,15.176,21.732c-0.664,6.611-5.901,10.021-13.728,6.836c-12.256-4.987-24.905-8.852-37.05-14.246
	c-21.438-9.521-43.312-11.975-63.411,3.687c-4.534,3.535-7.514,9.07-11.321,13.83c-3.801-21.876,1.566-30.924,21.755-38.619
	c13.615-5.189,26.432-11.604,42.15-7.759c12.71,3.111,24.036,8.949,35.668,14.197c5.009,2.257,8.534,7.168,10.116,13.143
	C306.219,268.209,308.574,271.872,311.472,278.096z"/>
<path fill-rule="evenodd" clip-rule="evenodd" fill="none" d="M234.022,460.372c-20.684-0.412-37.921-5.7-49.066-23.418
	c-1.013-1.608-3.388-2.821-2.415-5.051c1.186-2.705,3.906-2.25,6.132-1.763c2.886,0.632,6.124,1.087,8.433,2.721
	c11.855,8.389,24.492,10.732,38.707,7.377c9.025-2.133,18.387-2.878,26.946-6.804c2.029-0.931,3.799-3.265,6.1-0.727
	c1.783,1.965,1.409,4.367,0.766,6.64c-2.646,9.385-9.032,15.658-17.967,18.465C245.729,459.673,239.346,460.878,234.022,460.372z"/>
</svg>
